<svg id="Layer_1" data-name="Layer 1" xmlns="http://www.w3.org/2000/svg" viewBox="0 0 16 16"><title>favicon</title><path d="M5.29.141A1.776,1.776,0,0,1,5.6,1.169a1.781,1.781,0,0,1-.31.963,3.217,3.217,0,0,1,.846-.655,3.338,3.338,0,0,1,.609-.252c.256-.049.53-.093.821-.127a11.34,11.34,0,0,1,1.323-.075,4.663,4.663,0,0,1,1.4.328A3.628,3.628,0,0,1,11.879,2.46,3.04,3.04,0,0,1,12.541,4.4a2.936,2.936,0,0,1-.291,1.16,2.38,2.38,0,0,1-.609.907,1.505,1.505,0,0,1-.556.353,1.469,1.469,0,0,1-.529.076Q9.938,6.3,9.321,5.711L8.162,4.6A14.838,14.838,0,0,0,6.719,6.1a7.244,7.244,0,0,1-.73.768,3.421,3.421,0,0,1-.373.3,3.177,3.177,0,0,1-.7.363l1.323-.076L8.263,5.5l2.266,1.922a3.124,3.124,0,0,0,.621.023,2.5,2.5,0,0,0,1.541-.6,2.779,2.779,0,0,0,.45-.441,3.562,3.562,0,0,0,.67-1.805,3.333,3.333,0,0,0-.4-2.017A3.564,3.564,0,0,0,12.3,1.426a7.086,7.086,0,0,0-.847-.454A8.811,8.811,0,0,0,10.424.519,6.125,6.125,0,0,0,8.44.224a10.2,10.2,0,0,0-1.3.068C6.88.32,6.66.352,6.5.378A2.513,2.513,0,0,1,5.925.342,2.5,2.5,0,0,1,5.29.141Z"/><path d="M6.178,8,8.227,9.594c.447-.38.945-.769,1.5-1.154q.39-.271.768-.51a2.115,2.115,0,0,1,.76.016,2.532,2.532,0,0,1,.574.211,3.7,3.7,0,0,1,.953.605,3.269,3.269,0,0,1,.714.958,3.5,3.5,0,0,1,.265,2.193,2.969,2.969,0,0,1-.662,1.538,3.349,3.349,0,0,1-.793.63,6.4,6.4,0,0,1-1.173.563,10.086,10.086,0,0,1-1.028.349,7.54,7.54,0,0,1-1.232.22c-.09.009-.292.026-1.1.031-.478,0-.871,0-1.14,0a1.279,1.279,0,0,0-.535.234c-.315.244-.373.561-.438.547a11.438,11.438,0,0,0,0-1.537c-.164-.838-.673-1.347-.582-1.412s.481.378,1.376.958a2,2,0,0,0,.715.327,3.3,3.3,0,0,0,.793.026c.247-.008.428-.025.715-.051.322-.029.483-.044.688-.075a6.779,6.779,0,0,0,.82-.177,7.185,7.185,0,0,0,.741-.252,3.206,3.206,0,0,0,.98-.5,2.154,2.154,0,0,0,.555-.832,2.784,2.784,0,0,0,.186-.681,3.675,3.675,0,0,0,0-1.159,4.152,4.152,0,0,0-.662-1.437,1.189,1.189,0,0,0-.662-.53c-.434-.117-.83.117-1.318.387a19.446,19.446,0,0,1-2.043.975c-.378-.292-.7-.539-.952-.731,0,0-.217-.166-.741-.555a4.2,4.2,0,0,0-.9-.58,2.733,2.733,0,0,0-.609-.176Z"/><path d="M5.354,8.362A4.737,4.737,0,0,1,6.5,9.149a4.181,4.181,0,0,0-.154,3.31c.012.03.012.029.03.076A6.538,6.538,0,0,1,6.7,13.621,7.237,7.237,0,0,0,5.759,13c-.157-.087-.311-.164-.459-.233-.015-.052-.029-.1-.042-.158,0,0-.021-.079-.039-.161C5.192,12.328,5.221,10.655,5.354,8.362Z"/><path d="M10.283,9.255a2.013,2.013,0,0,1,.529-.3,2.1,2.1,0,0,1,.529-.124,6.375,6.375,0,0,1,.45,1.661,6.54,6.54,0,0,1-.026,1.809,6.678,6.678,0,0,1-.186.843,3.283,3.283,0,0,1-.693.338c-.217.076-.326.114-.37.093-.289-.14.578-1.384.428-2.736A3.286,3.286,0,0,0,10.283,9.255Z"/><path d="M6.447,1.781a1.286,1.286,0,0,0-.559.2,1.072,1.072,0,0,0-.421.543l.048,4.46L6.447,6Z"/><path d="M10.283,5.989l.365.366a.669.669,0,0,0,.82-.183,6.018,6.018,0,0,0,.4-1.99,5.919,5.919,0,0,0-.188-1.646,1.739,1.739,0,0,0-.609-.526,2.082,2.082,0,0,0-.788-.229,3.7,3.7,0,0,1,.656,2.653A3.655,3.655,0,0,1,10.283,5.989Z"/><path d="M13.806,5.74a4.153,4.153,0,0,0,.185-1.11,4.338,4.338,0,0,0-.616-2.311,8.015,8.015,0,0,1,.885.979,7.7,7.7,0,0,1,.91,1.532,7.384,7.384,0,0,1,.436,1.307,7.406,7.406,0,0,1,.137,2.55A7.424,7.424,0,0,1,15.51,9.84a4.213,4.213,0,0,1-.749,1.728,7.461,7.461,0,0,1-.753,1.051,7.667,7.667,0,0,1-.739.751,3.285,3.285,0,0,0,.7-1.58,3.179,3.179,0,0,0-.079-1.286,4.289,4.289,0,0,0,.635-1.336,4.21,4.21,0,0,0,.106-1.739,3.032,3.032,0,0,0-.291-.933A3.181,3.181,0,0,0,13.806,5.74Z"/><path d="M5.178,2.091A7.657,7.657,0,0,0,3.666,3.146,6.345,6.345,0,0,0,1.341,7.511,5.9,5.9,0,0,0,2.506,11.09a7.3,7.3,0,0,0,2.382,2.2A3.364,3.364,0,0,1,5.5,14.645a3.265,3.265,0,0,1,0,1.26A1.63,1.63,0,0,0,5.02,14.8a6.947,6.947,0,0,0-.593-.374c-.338-.212-.507-.318-.61-.391a7.65,7.65,0,0,1-.734-.619c-.416-.375-.624-.563-.728-.667a6.007,6.007,0,0,1-1.071-1.5,7.55,7.55,0,0,1-.82-2.807A6.949,6.949,0,0,1,.408,7.279,6.76,6.76,0,0,1,.984,4.843,7.934,7.934,0,0,1,2.162,3c.125-.141.349-.379.624-.637.124-.117.337-.316.635-.553s.326-.228.672-.5A4.277,4.277,0,0,0,4.7.78,3.038,3.038,0,0,0,5.1.213a1.624,1.624,0,0,1,.339.819A1.614,1.614,0,0,1,5.178,2.091Z"/><path d="M7.73,7.1a.157.157,0,0,1-.106-.043.177.177,0,0,1-.057-.125.17.17,0,0,1,.156-.182h.006a.158.158,0,0,1,.107.042.185.185,0,0,1,.057.126h0a.172.172,0,0,1-.157.182Zm0-.28h0a.1.1,0,0,0-.089.109.108.108,0,0,0,.034.077.078.078,0,0,0,.062.023.1.1,0,0,0,.089-.108h0a.111.111,0,0,0-.033-.077A.093.093,0,0,0,7.729,6.823Z"/><path d="M7.7,8.053a.153.153,0,0,1-.1-.042.182.182,0,0,1-.058-.126A.171.171,0,0,1,7.7,7.7H7.7a.158.158,0,0,1,.106.042.185.185,0,0,1,.057.126.172.172,0,0,1-.156.182Zm0-.28h0a.1.1,0,0,0-.09.109.109.109,0,0,0,.035.077.082.082,0,0,0,.058.024h0a.1.1,0,0,0,.088-.108A.108.108,0,0,0,7.759,7.8.082.082,0,0,0,7.7,7.773Z"/><path d="M8.606,8.017a.139.139,0,0,1,0-.278h0a.14.14,0,0,1,.1.037.139.139,0,0,1,.007.2.138.138,0,0,1-.1.045Zm0-.228h0a.09.09,0,0,0-.062.028.086.086,0,0,0-.024.064.087.087,0,0,0,.029.062.089.089,0,0,0,.06.024h0a.089.089,0,0,0,0-.178Z"/><path d="M8.675,7.066a.135.135,0,0,1-.094-.036.139.139,0,0,1,.088-.241h.006a.138.138,0,0,1,.094.037.14.14,0,0,1,.008.2.139.139,0,0,1-.1.044Zm0-.227h0a.089.089,0,0,0,0,.178h0a.09.09,0,0,0,.086-.093A.089.089,0,0,0,8.675,6.839Z"/><path d="M8.705,7.371a.384.384,0,0,1-.087.234.348.348,0,0,1-.229.126.34.34,0,0,1-.141-.014.336.336,0,0,1-.129-.077.359.359,0,0,1-.089-.13A.377.377,0,0,1,8,7.351a.389.389,0,0,1,.037-.158.361.361,0,0,1,.1-.125A.333.333,0,0,1,8.267,7a.325.325,0,0,1,.142-.006.353.353,0,0,1,.222.14A.386.386,0,0,1,8.705,7.371Zm0,0a.3.3,0,0,0-.023-.122.267.267,0,0,0-.07-.1.256.256,0,0,0-.1-.055.26.26,0,0,0-.107-.006.263.263,0,0,0-.162.1.289.289,0,0,0-.009.335.256.256,0,0,0,.157.11.252.252,0,0,0,.106,0,.264.264,0,0,0,.1-.049.289.289,0,0,0,.075-.094A.3.3,0,0,0,8.705,7.371Z"/><path d="M8.69,7.4a.167.167,0,0,1-.044.108.18.18,0,0,1-.113.058.186.186,0,0,1-.07-.007A.183.183,0,0,1,8.4,7.525a.164.164,0,0,1-.044-.06.155.155,0,0,1-.015-.073.173.173,0,0,1,.066-.13.192.192,0,0,1,.066-.032.19.19,0,0,1,.071,0,.179.179,0,0,1,.11.065A.171.171,0,0,1,8.69,7.4Zm0,0a.131.131,0,0,0-.046-.1.124.124,0,0,0-.05-.025.137.137,0,0,0-.053,0,.129.129,0,0,0-.08.046.124.124,0,0,0-.029.076.126.126,0,0,0,.024.078.13.13,0,0,0,.078.05.119.119,0,0,0,.053,0A.122.122,0,0,0,8.638,7.5a.128.128,0,0,0,.037-.043A.133.133,0,0,0,8.69,7.4Z"/><path d="M8.705,7.4a.661.661,0,0,1-.133.385.524.524,0,0,1-.349.208.483.483,0,0,1-.215-.024.522.522,0,0,1-.2-.126.617.617,0,0,1-.136-.214.71.71,0,0,1-.044-.263.675.675,0,0,1,.057-.26A.6.6,0,0,1,7.834,6.9a.524.524,0,0,1,.2-.114.5.5,0,0,1,.217-.01A.538.538,0,0,1,8.591,7,.669.669,0,0,1,8.705,7.4Zm0,0a.547.547,0,0,0-.035-.2.463.463,0,0,0-.107-.161.386.386,0,0,0-.152-.091.358.358,0,0,0-.162-.009A.388.388,0,0,0,8,7.1a.491.491,0,0,0-.089.273.5.5,0,0,0,.075.279.4.4,0,0,0,.239.18.359.359,0,0,0,.163,0,.377.377,0,0,0,.156-.081.44.44,0,0,0,.114-.155A.512.512,0,0,0,8.705,7.4Z"/><circle cx="8.606" cy="7.396" r="0.084"/></svg>