<svg id="Layer_1" data-name="Layer 1" xmlns="http://www.w3.org/2000/svg" viewBox="0 0 40 40"><defs><style>.cls-1,.cls-2{fill:none;stroke:#000;stroke-miterlimit:10;}.cls-1{stroke-width:0.07px;}.cls-2{stroke-width:0.05px;}</style></defs><title>nav-logo</title><path d="M13,0a4.4,4.4,0,0,1,.79,2.57A4.41,4.41,0,0,1,13,5a8.09,8.09,0,0,1,2.14-1.63,8,8,0,0,1,1.54-.63c.65-.13,1.34-.23,2.08-.32a29,29,0,0,1,3.34-.19A12.1,12.1,0,0,1,25.6,3a9.11,9.11,0,0,1,4,2.77,7.48,7.48,0,0,1,1.67,4.84,7.21,7.21,0,0,1-.73,2.9A6,6,0,0,1,29,15.79a3.81,3.81,0,0,1-1.41.89,3.57,3.57,0,0,1-1.33.18l-3.13-2.95-2.92-2.78a36.71,36.71,0,0,0-3.65,3.73,17.57,17.57,0,0,1-1.85,1.92,9.56,9.56,0,0,1-.94.75,8.26,8.26,0,0,1-1.76.91l3.34-.19,5.11-4.86,5.73,4.8a8.27,8.27,0,0,0,1.57,0,6.32,6.32,0,0,0,3.89-1.49,6.89,6.89,0,0,0,1.14-1.1,8.92,8.92,0,0,0,1.7-4.51,8.31,8.31,0,0,0-1-5,8.83,8.83,0,0,0-2.81-2.89,17.09,17.09,0,0,0-2.14-1.13A21.89,21.89,0,0,0,25.93.94a15.58,15.58,0,0,0-5-.73,25.44,25.44,0,0,0-3.28.17C17,.45,16.42.53,16,.59A6.41,6.41,0,0,1,14.56.5,6.15,6.15,0,0,1,13,0Z"/><path d="M15.2,19.62l5.18,4c1.13-1,2.39-1.92,3.78-2.88.66-.46,1.31-.88,1.94-1.28a5.77,5.77,0,0,1,1.93,0,7.23,7.23,0,0,1,1.45.53,9.51,9.51,0,0,1,2.41,1.51,8.16,8.16,0,0,1,1.8,2.39,8.65,8.65,0,0,1,.67,5.48,7.35,7.35,0,0,1-1.67,3.84,8.36,8.36,0,0,1-2,1.57,15.66,15.66,0,0,1-3,1.4,23.32,23.32,0,0,1-2.6.87,18.86,18.86,0,0,1-3.12.55,26.76,26.76,0,0,1-2.77.08c-1.21,0-2.2,0-2.88,0a3.31,3.31,0,0,0-1.35.59c-.8.61-.95,1.4-1.11,1.36s.39-1.84,0-3.83-1.7-3.36-1.47-3.53,1.21.95,3.48,2.39a4.91,4.91,0,0,0,1.8.82,8,8,0,0,0,2,.06c.62,0,1.08-.06,1.81-.12s1.22-.11,1.74-.19a18.06,18.06,0,0,0,2.07-.44,18.63,18.63,0,0,0,1.87-.63,8.07,8.07,0,0,0,2.48-1.26,5.16,5.16,0,0,0,1.4-2.08,6.57,6.57,0,0,0,.47-1.69,8.91,8.91,0,0,0,0-2.9,10.13,10.13,0,0,0-.67-1.89,10.32,10.32,0,0,0-1-1.7,3,3,0,0,0-1.67-1.32c-1.1-.29-2.1.29-3.34,1a49.16,49.16,0,0,1-5.16,2.43L17.3,22.91s-.55-.42-1.87-1.39a10.93,10.93,0,0,0-2.28-1.45,7.68,7.68,0,0,0-1.54-.44Z"/><path d="M13.11,20.52a11.22,11.22,0,0,1,1.51.87A11.63,11.63,0,0,1,16,22.49a10.35,10.35,0,0,0-1,3.34,10.17,10.17,0,0,0,.61,4.92c0,.08,0,.07.07.19a16,16,0,0,1,.83,2.71,18,18,0,0,0-2.39-1.55c-.4-.22-.79-.41-1.16-.58,0-.13-.07-.26-.11-.4l-.1-.4C12.71,30.42,12.78,26.25,13.11,20.52Z"/><path d="M25.58,22.75A5.37,5.37,0,0,1,26.91,22a5.92,5.92,0,0,1,1.34-.31,16.08,16.08,0,0,1,.6,10.77,8.45,8.45,0,0,1-1.75.84c-.55.19-.82.29-.94.23-.73-.35,1.47-3.45,1.09-6.83A8.21,8.21,0,0,0,25.58,22.75Z"/><path d="M15.88,4.1a3.29,3.29,0,0,0-1.42.5A2.69,2.69,0,0,0,13.4,6l.12,11.13,2.36-2.47Z"/><path d="M25.58,14.6l.92.91a1.64,1.64,0,0,0,.8.17,1.73,1.73,0,0,0,1.27-.62A14.71,14.71,0,0,0,29.11,6a4.38,4.38,0,0,0-1.54-1.31,5.09,5.09,0,0,0-2-.57,9.15,9.15,0,0,1,1.66,6.62A9.23,9.23,0,0,1,25.58,14.6Z"/><path d="M34.48,14A10,10,0,0,0,35,11.21a10.64,10.64,0,0,0-1.56-5.77,19.58,19.58,0,0,1,2.24,2.44,18.31,18.31,0,0,1,2.3,3.83A17.66,17.66,0,0,1,39,15a17.88,17.88,0,0,1,.48,3.64,19,19,0,0,1-.13,2.72,17.53,17.53,0,0,1-.59,2.88,10.41,10.41,0,0,1-.63,2.1,10.54,10.54,0,0,1-1.26,2.22A19,19,0,0,1,35,31.15,17.3,17.3,0,0,1,33.13,33a8.14,8.14,0,0,0,1.75-3.94,7.75,7.75,0,0,0-.2-3.21,10.69,10.69,0,0,0,1.61-3.34,10.46,10.46,0,0,0,.27-4.34,7.88,7.88,0,0,0-.74-2.33A7.75,7.75,0,0,0,34.48,14Z"/><path d="M12.67,4.87A19.22,19.22,0,0,0,8.85,7.5C7.49,8.71,3.2,12.51,3,18.4a14.63,14.63,0,0,0,2.94,8.93,18.28,18.28,0,0,0,6,5.48,8.4,8.4,0,0,1,1.53,3.4,7.92,7.92,0,0,1,0,3.14,4,4,0,0,0-1.2-2.77c-.15-.13-.17-.11-1.5-.93-.85-.53-1.28-.79-1.54-1a17.82,17.82,0,0,1-1.86-1.54c-1-.94-1.57-1.41-1.84-1.67a15.24,15.24,0,0,1-2.71-3.74,18.64,18.64,0,0,1-2.07-7,17,17,0,0,1-.14-2.89,16.79,16.79,0,0,1,1.46-6.08A19.69,19.69,0,0,1,5,7.13c.32-.35.89-.94,1.58-1.59.32-.29.85-.79,1.61-1.38s.82-.57,1.7-1.24A11.66,11.66,0,0,0,11.47,1.6a7.24,7.24,0,0,0,1-1.42,4,4,0,0,1,.86,2.05A4,4,0,0,1,12.67,4.87Z"/><ellipse class="cls-1" cx="18.45" cy="16.79" rx="0.5" ry="0.49"/><ellipse class="cls-2" cx="21.43" cy="19.45" rx="0.5" ry="0.49"/><ellipse class="cls-2" cx="21.51" cy="16.68" rx="0.5" ry="0.49"/><ellipse class="cls-1" cx="18.52" cy="19.33" rx="0.5" ry="0.49"/><path d="M21.59,18.05a1,1,0,0,1-.22.58.91.91,0,0,1-.58.32.89.89,0,0,1-.36,0,.92.92,0,0,1-.33-.19,1,1,0,0,1-.22-.32,1,1,0,0,1,0-.8,1,1,0,0,1,.24-.31.91.91,0,0,1,.34-.17.9.9,0,0,1,.92.33A1,1,0,0,1,21.59,18.05Zm0,0a.81.81,0,0,0-.06-.31.69.69,0,0,0-.18-.24.62.62,0,0,0-.25-.14.82.82,0,0,0-.27,0,.67.67,0,0,0-.41.25.79.79,0,0,0-.15.41.7.7,0,0,0,.13.42.63.63,0,0,0,.4.28.64.64,0,0,0,.52-.12.72.72,0,0,0,.19-.24A.79.79,0,0,0,21.59,18.05Z"/><path d="M21.55,18.12a.39.39,0,0,1-.11.27.43.43,0,0,1-.29.15.55.55,0,0,1-.18,0,.65.65,0,0,1-.16-.09.58.58,0,0,1-.11-.15.53.53,0,0,1,0-.18.61.61,0,0,1,.05-.18.41.41,0,0,1,.12-.14A.38.38,0,0,1,21,17.7a.37.37,0,0,1,.18,0,.44.44,0,0,1,.27.16A.41.41,0,0,1,21.55,18.12Zm0,0a.39.39,0,0,0,0-.14.31.31,0,0,0-.09-.11.34.34,0,0,0-.12-.06h-.14a.37.37,0,0,0-.2.12.26.26,0,0,0-.07.19.24.24,0,0,0,.06.19.32.32,0,0,0,.2.13.28.28,0,0,0,.13,0,.38.38,0,0,0,.13-.06.24.24,0,0,0,.09-.11A.33.33,0,0,0,21.55,18.12Z"/><path d="M21.59,18.07a1.63,1.63,0,0,1-.38,1,1.52,1.52,0,0,1-1,.53,1.59,1.59,0,0,1-.61-.06,1.49,1.49,0,0,1-.56-.32,1.53,1.53,0,0,1-.39-.55,1.79,1.79,0,0,1-.13-.68,1.73,1.73,0,0,1,.16-.67,1.63,1.63,0,0,1,.42-.52,1.61,1.61,0,0,1,.58-.3,1.45,1.45,0,0,1,.62,0,1.51,1.51,0,0,1,1,.59A1.55,1.55,0,0,1,21.59,18.07Zm0,0a1.3,1.3,0,0,0-.1-.52,1.14,1.14,0,0,0-.31-.41,1.31,1.31,0,0,0-.43-.24,1.2,1.2,0,0,0-.46,0,1.15,1.15,0,0,0-1,1.12,1.19,1.19,0,0,0,.21.72,1.1,1.1,0,0,0,.68.46,1.06,1.06,0,0,0,.47,0,1.09,1.09,0,0,0,.44-.2,1.16,1.16,0,0,0,.33-.4A1.28,1.28,0,0,0,21.59,18.07Z"/><circle cx="21.34" cy="18.11" r="0.21"/></svg>